<svg xmlns="http://www.w3.org/2000/svg" viewBox="0 0 160 100" width="160" height="100" role="img">
  <rect width="160" height="100" fill="#F4F5F7"/>
  <rect x="8" y="12" width="94" height="76" rx="6" fill="#FFFFFF"/>
  <rect x="14" y="18" width="28" height="4" rx="2" fill="#1B2A63"/>
  <rect x="18" y="32" width="28" height="40" rx="2" fill="#8E9AC4"/>
  <rect x="54" y="34" width="40" height="7" rx="3.5" fill="#1B2A63"/>
  <rect x="54" y="46" width="34" height="3" rx="1.5" fill="#B9C0CF"/>
  <rect x="54" y="52" width="38" height="3" rx="1.5" fill="#B9C0CF"/>
  <rect x="54" y="64" width="18" height="7" rx="3.5" fill="#FFFFFF" stroke="#1B2A63" stroke-width="1"/>
  <rect x="75" y="64" width="18" height="7" rx="3.5" fill="#F6C321"/>
  <rect x="108" y="24" width="46" height="52" rx="6" fill="#F8E4E5"/>
  <rect x="114" y="31" width="32" height="5" rx="2.5" fill="#B4181F"/>
  <circle cx="116" cy="45" r="2" fill="#B4181F"/>
  <rect x="120" y="44" width="26" height="2.5" rx="1.25" fill="#D98A8E"/>
  <circle cx="116" cy="53" r="2" fill="#B4181F"/>
  <rect x="120" y="52" width="22" height="2.5" rx="1.25" fill="#D98A8E"/>
  <circle cx="116" cy="61" r="2" fill="#B4181F"/>
  <rect x="120" y="60" width="26" height="2.5" rx="1.25" fill="#D98A8E"/>
  <circle cx="116" cy="69" r="2" fill="#B4181F"/>
  <rect x="120" y="68" width="18" height="2.5" rx="1.25" fill="#D98A8E"/>
</svg>
